<?xml version="1.0" standalone="no"?>
<!DOCTYPE svg PUBLIC "-//W3C//DTD SVG 1.1//EN" "http://www.w3.org/Graphics/SVG/1.1/DTD/svg11.dtd" >
<svg xmlns="http://www.w3.org/2000/svg" xmlns:xlink="http://www.w3.org/1999/xlink" version="1.1">
<metadata>
Created by FontForge 20200511 at Tue Jul 14 00:37:07 2020
 By convertio
</metadata>
<defs>
<font id="MoonLightRegular" horiz-adv-x="585" >
  <font-face 
    font-family="Moon Light"
    font-weight="400"
    font-stretch="normal"
    units-per-em="1000"
    panose-1="0 0 0 0 0 0 0 0 0 0"
    ascent="800"
    descent="-200"
    x-height="725"
    cap-height="728"
    bbox="-2 -141 789 817.5"
    underline-thickness="50"
    underline-position="-150"
    unicode-range="U+000A-2122"
  />
<missing-glyph horiz-adv-x="527" 
d="M50 700h427v-700h-427v700zM78 680l185 -309l186 309h-371zM251 350l-180 300v-601zM264 329l-185 -308h370zM276 350l181 -303v605z" />
    <glyph glyph-name=".notdef" horiz-adv-x="527" 
d="M50 700h427v-700h-427v700zM78 680l185 -309l186 309h-371zM251 350l-180 300v-601zM264 329l-185 -308h370zM276 350l181 -303v605z" />
    <glyph glyph-name=".null" horiz-adv-x="0" 
 />
    <glyph glyph-name=".null" horiz-adv-x="0" 
 />
    <glyph glyph-name="nonmarkingreturn" horiz-adv-x="333" 
 />
    <glyph glyph-name="controlLF" unicode="&#xa;" horiz-adv-x="0" 
 />
    <glyph glyph-name="controlCR" unicode="&#xd;" horiz-adv-x="0" 
 />
    <glyph glyph-name="space" unicode=" " horiz-adv-x="239" 
 />
    <glyph glyph-name="exclam" unicode="!" horiz-adv-x="115" 
d="M95 0h-77v93h77v-93zM88 144h-58l-12 507h77z" />
    <glyph glyph-name="quotedbl" unicode="&#x22;" horiz-adv-x="202" 
d="M32 555l-31 179h77l-27 -179h-19zM122 732h77l-27 -179h-19z" />
    <glyph glyph-name="numbersign" unicode="#" horiz-adv-x="513" 
d="M508 651l-52 -212h43v-78h-62l-27 -108h59v-77h-78l-44 -176h-80l44 176h-190l-43 -176h-80l44 176h-34v77h53l27 108h-50v78h69l52 212h80l-53 -212h190l53 212h79zM330 253l27 108h-190l-27 -108h190z" />
    <glyph glyph-name="dollar" unicode="$" horiz-adv-x="501" 
d="M488 308q14 -85 -39 -150q-28 -34 -70.5 -57t-89.5 -30v-120h-78v120q-85 11 -140 66q-60 57 -60 139h69q0 -53 39 -90q36 -35 92 -46v194q-33 -4 -66 -1t-60.5 11t-47 31t-25.5 58q-3 29 -1.5 60t16 69t40.5 68q55 64 144 79v82h78v-78q89 -5 141 -62q18 -21 31 -48
t18.5 -49t7.5 -45t2 -32t-1 -15l-69 6l35 -3l-35 3q1 9 0.5 25.5t-10.5 52.5t-31 59q-31 34 -89 39v-235q33 3 66 0t60.5 -11.5t47 -31.5t25.5 -58zM211 403v235q-58 -13 -92 -53q-25 -30 -35 -69t-4 -71q5 -30 35 -38t96 -4zM395 201q34 42 25 95q-5 30 -35 39t-96 4v-198
q68 14 106 60z" />
    <glyph glyph-name="percent" unicode="%" horiz-adv-x="617" 
d="M132.5 357q-45.5 0 -76.5 42t-31 103t31 103t76.5 42t77 -42t31.5 -103t-31.5 -103t-77 -42zM133 569q-10 0 -20.5 -19.5t-10.5 -48t10.5 -48t20.5 -19.5q4 0 9 5t10 13t8 21.5t3 28.5q0 19 -5.5 35.5t-12.5 24t-12 7.5zM477.5 294q45.5 0 77 -42t31.5 -103t-31.5 -103
t-77 -42t-76.5 42t-31 103t31 103t76.5 42zM477.5 81q9.5 0 20 19.5t10.5 48.5t-10.5 48t-19.5 19q-6 0 -13 -7.5t-12.5 -24t-5.5 -35.5q0 -29 10.5 -48.5t20 -19.5zM499 651h96l-484 -651h-89z" />
    <glyph glyph-name="ampersand" unicode="&#x26;" horiz-adv-x="517" 
d="M434 104q32 -17 61 -31l-34 -69q-40 19 -89 46q-73 -50 -157 -50q-121 0 -168 47q-16 16 -23.5 38t-8.5 36t-1 37v11q0 43 71 95q-71 80 -71 148q0 125 52 182.5t164 57.5q60 0 94 -45q22 -30 28.5 -75.5t2.5 -82t-13 -68.5q-10 -31 -43 -59.5t-92 -67.5q66 -55 158 -110
q22 22 29.5 47t7 42.5t1.5 20.5l76 -1q0 -1 -0.5 -12t-2 -27t-5 -35t-13 -39t-24.5 -36zM230 575q-19 0 -32.5 -1t-29 -5t-26 -10.5t-21 -18.5t-16.5 -29.5t-10 -42t-4 -56.5q0 -44 57 -104q1 0 2 0.5t1 1.5q110 71 116 93q13 38 12 87t-17 71q-11 14 -32 14zM215 77
q41 0 81 19q-92 57 -155 113q-45 -32 -50 -44v-8q0 -44 11 -56q24 -24 113 -24z" />
    <glyph glyph-name="quotesingle" unicode="'" horiz-adv-x="75" 
d="M-2 735h77l-27 -180h-19z" />
    <glyph glyph-name="quotesingle" unicode="&#x2019;" horiz-adv-x="75" 
d="M-2 735h77l-27 -180h-19z" />
    <glyph glyph-name="parenleft" unicode="(" horiz-adv-x="258" 
d="M87 371q-1 -56 14 -121.5t35.5 -117.5t45 -101t37 -70.5t16.5 -27.5l-63 5l-2 2q-13 18 -25.5 36t-40 66.5t-46.5 94.5t-34 111t-14 124q5 202 142 405h65q-1 -2 -7 -12.5t-18 -34t-25 -51.5t-27 -65.5t-25 -75.5t-19 -82.5t-9 -84.5z" />
    <glyph glyph-name="parenright" unicode=")" horiz-adv-x="259" 
d="M105 776q137 -203 142 -404q1 -60 -14 -124.5t-34 -111t-46.5 -95t-40 -66.5t-25.5 -35q-2 -2 -2 -3l-63 -4q4 5 17 27t37 70.5t44.5 100.5t35.5 118t13.5 121.5t-15.5 118t-31.5 110t-38 91.5t-31 63t-13.5 24z" />
    <glyph glyph-name="asterisk" unicode="*" horiz-adv-x="365" 
d="M358 626l-155 -52l149 -92l-52 -58l-111 134h-6l-84 -141l-59 49l123 106l-160 46l32 71l131 -90l-24 138h78l-21 -135l124 93z" />
    <glyph glyph-name="plus" unicode="+" horiz-adv-x="421" 
d="M260 384h139v-77h-139v-192h-77v192h-161v77h161v178h77v-178z" />
    <glyph glyph-name="comma" unicode="," horiz-adv-x="92" 
d="M7 96h77v-194h-35l-11 84l-31 17v93z" />
    <glyph glyph-name="hyphen" unicode="-" horiz-adv-x="276" 
d="M268 218h-261v77h261v-77z" />
    <glyph glyph-name="period" unicode="." horiz-adv-x="90" 
d="M83 0h-77v93h77v-93z" />
    <glyph glyph-name="slash" unicode="/" horiz-adv-x="328" 
d="M225 651h81l-203 -651h-81z" />
    <glyph glyph-name="zero" unicode="0" horiz-adv-x="405" 
d="M202 656q8 0 17.5 -2t29 -10t37 -20.5t38 -37t35.5 -56.5t24.5 -82t9.5 -110q0 -218 -114 -307q-39 -31 -86 -31q-52 0 -91 36q-90 83 -90 289q0 54 6.5 100t17.5 78t24.5 57.5t30 41.5t30.5 27t29.5 16.5t24 7.5t16.5 3q5 1 11 0zM231 91q85 67 85 247q0 63 -11.5 111
t-26.5 71.5t-34.5 38t-29.5 17t-17 3.5q-17 -1 -34 -14.5t-34.5 -40.5t-28.5 -79t-11 -120q0 -172 66 -232q15 -15 36.5 -15.5t39.5 13.5z" />
    <glyph glyph-name="one" unicode="1" horiz-adv-x="245" 
d="M147 651h77v-651h-77v518q-18 -20 -38 -39.5t-29.5 -28t-12.5 -10.5l-45 63q100 68 125 148z" />
    <glyph glyph-name="two" unicode="2" horiz-adv-x="463" 
d="M289 246q-28 -18 -43.5 -28t-39.5 -28.5t-38.5 -33.5t-29.5 -35.5t-24 -42.5h340v-78h-421v1h-11q0 35 8 67t18.5 56t31 49.5t36.5 41.5t43.5 36.5t43.5 31t45 29.5q34 21 50.5 32.5t38 30t31 35t9.5 35.5q0 44 -15 73t-45 43t-77 14q-27 0 -51.5 -15t-40 -34t-28.5 -43
t-17 -34t-6 -16l-73 24q3 9 8.5 23.5t24.5 47.5t42 58.5t60.5 45.5t80.5 20q68 0 116 -24t73 -70.5t25 -112.5q0 -27 -10.5 -52.5t-23.5 -43t-39 -38.5t-42.5 -32.5t-49.5 -32.5z" />
    <glyph glyph-name="three" unicode="3" horiz-adv-x="478" 
d="M411 352q54 -53 54 -151q0 -53 -19.5 -93.5t-52 -63t-69.5 -33.5t-77 -11q-36 0 -72.5 9.5t-71 28.5t-56.5 53t-22 78h78q0 -26 16.5 -45.5t41.5 -28.5t47 -13t39 -4q15 0 29 1.5t30.5 6t30.5 13.5t25.5 22t18.5 33.5t7 46.5q0 66 -32 97q-33 33 -108 33h-1h-3l2 78
q102 -3 123 18q8 7 8 25q0 20 -0.5 29.5t-3 25t-7.5 22.5t-14 16.5t-23 13.5t-35 7.5t-49 3.5q-36 0 -64.5 -12t-42.5 -27t-24 -35t-12 -30t-3 -18l-77 7q2 22 9.5 45.5t25 50.5t41.5 47.5t62.5 34.5t84.5 14q43 0 77 -7.5t56 -18t37 -29t22.5 -33t11.5 -38t4.5 -36
t0.5 -33.5q0 -50 -31 -80q-7 -8 -18 -15q1 0 3 -2z" />
    <glyph glyph-name="four" unicode="4" horiz-adv-x="444" 
d="M414 228h14v-77h-14v-151h-78v151h-314v77l314 423h78v-423zM336 228v296l-218 -296h218z" />
    <glyph glyph-name="five" unicode="5" horiz-adv-x="418" 
d="M344 415q62 -62 62 -183q0 -104 -71 -175q-58 -57 -125 -57h-1q-75 0 -135.5 44.5t-60.5 113.5h77q0 -35 39 -58t81 -23q13 -1 32.5 8t37.5 27q49 48 49 120q0 89 -40 128q-32 32 -96 31q-18 -1 -33.5 -4t-26 -8t-18.5 -11t-12.5 -11t-7.5 -10.5t-4 -8l-1 -2.5h-2l-7 -29
l-75 19l81 326l9 -2v2h304v-78h-252l-30 -118q33 11 74 12q96 1 152 -53z" />
    <glyph glyph-name="six" unicode="6" horiz-adv-x="447" 
d="M243 462q81 -10 137 -72t56 -141q0 -128 -52 -188.5t-161 -60.5q-27 0 -52.5 6.5t-56 27.5t-52 55.5t-36.5 97t-15 145.5q0 142 64 236.5t159 94.5q28 0 54.5 -9.5t45.5 -24.5t36 -35t27.5 -37t19.5 -36t12 -26.5l5 -12.5l-74 -24q-1 2 -3 7.5t-8 18t-13 25t-18 27
t-23 25.5t-28 18t-33 7q-47 0 -84.5 -47t-52.5 -122q63 55 146 45zM223 77q35 0 58 7t41.5 25t27 52.5t8.5 87.5q0 35 -18.5 66t-47 48.5t-58.5 21.5q-113 13 -145 -109q9 -92 44 -145.5t90 -53.5z" />
    <glyph glyph-name="seven" unicode="7" horiz-adv-x="397" 
d="M22 652h353v-77q-76 -135 -158 -316.5t-86 -258.5l-78 4q3 56 50.5 174t93 209.5t97.5 187.5h-272v77z" />
    <glyph glyph-name="eight" unicode="8" horiz-adv-x="417" 
d="M317 354q43 -26 68.5 -69t25.5 -93q0 -80 -59.5 -136t-143 -56t-143 56t-59.5 136q0 50 25 92.5t68 68.5q-52 52 -52 126q0 72 47 122.5t113.5 50.5t113.5 -50.5t47 -122.5q0 -74 -51 -125zM207.5 574q-34.5 0 -58.5 -27.5t-24 -67t24 -67.5t58.5 -28t58.5 28t24 67.5
t-24 67t-58.5 27.5zM209 77q34 0 62.5 15.5t45.5 42t17 57.5q0 47 -36.5 81t-88.5 34t-89 -34t-37 -81.5t37 -81t89 -33.5z" />
    <glyph glyph-name="nine" unicode="9" horiz-adv-x="457" 
d="M228 657q29 0 55 -6.5t57 -27.5t53 -55.5t37.5 -96t15.5 -143.5q0 -140 -65.5 -234t-163.5 -94q-39 0 -74.5 18.5t-57 41.5t-40 53.5t-24 43.5t-8.5 22l37 13l36 12q2 -4 6 -13.5t16 -31t26 -38.5t36.5 -30.5t46.5 -13.5q52 0 89.5 47.5t53.5 120.5q-66 -57 -153 -46
q-83 11 -139.5 72t-56.5 139q0 83 24 137.5t72 82t121 27.5zM216 276q18 -3 35.5 -1t34 6t30.5 14t25 24t17 35t7 47q-19 178 -137 178q-35 0 -59 -6.5t-43.5 -24.5t-28.5 -52t-9 -86t39.5 -90t88.5 -44z" />
    <glyph glyph-name="colon" unicode=":" horiz-adv-x="108" 
d="M97 0h-77v93h77v-93zM87 377h-77v93h77v-93z" />
    <glyph glyph-name="semicolon" unicode=";" horiz-adv-x="103" 
d="M88 0h-77v93h77v-93zM11 471h77v-194h-35l-11 84l-31 17v93z" />
    <glyph glyph-name="less" unicode="&#x3c;" horiz-adv-x="463" 
d="M461 472l-339 -137l339 -147l-31 -71l-408 177v71l408 178z" />
    <glyph glyph-name="equal" unicode="=" horiz-adv-x="452" 
d="M441 372h-430v78h430v-78zM440 179h-430v77h430v-77z" />
    <glyph glyph-name="greater" unicode="&#x3e;" horiz-adv-x="463" 
d="M33 540l408 -167v-82l-408 -178l-31 71l338 148l-338 137z" />
    <glyph glyph-name="question" unicode="?" horiz-adv-x="495" 
d="M285 0h-77v93h77v-93zM241 689q48 0 86 -9.5t61.5 -22.5t41 -35t25.5 -39.5t12.5 -42.5t5 -37.5t0.5 -31.5q0 -25 -9 -47t-29 -42t-34.5 -31t-41.5 -30q-24 -17 -36.5 -26.5t-25 -23.5t-12.5 -24v-103h-77v103q0 22 8.5 42t27 38t32 29t39.5 28q26 19 39.5 29.5t27.5 27
t14 30.5q0 27 -2.5 45t-11 38t-25 31.5t-45.5 19t-71 7.5q-19 0 -37.5 -8.5t-32.5 -21t-27 -30t-21 -32t-15 -30t-9 -21.5l-3 -9l-74 23q3 10 9 25.5t25.5 50t42.5 61.5t61 48t81 21z" />
    <glyph glyph-name="at" unicode="@" horiz-adv-x="785" 
d="M690 213l72 -29q-28 -69 -66 -116.5t-86 -74t-100.5 -37t-119.5 -10.5q-27 0 -58 1q-171 10 -248.5 123.5t-69.5 342.5q2 70 17 128t38 98t55 70t64 47.5t69.5 28.5t68.5 14.5t63 3.5q46 0 90 -9t87 -30t75.5 -52t53 -79t21.5 -107q3 -112 -27 -212t-84 -155
q-45 -46 -95 -46q-28 0 -47 23q-22 26 -27 99q-96 -122 -162 -122q-62 0 -96.5 60.5t-34.5 167.5q0 37 5.5 76.5t20 84.5t36.5 79.5t58.5 57.5t82.5 23q76 0 124 -46q2 11 2 14l76 -13q-26 -144 -34.5 -268t5.5 -157q15 4 31 21q38 39 65 123.5t24 187.5q-1 40 -13.5 72
t-31 52.5t-43.5 35.5t-47.5 23t-48 12.5t-39.5 5.5t-27 1q-287 0 -298 -316q-3 -94 9 -164t33.5 -110.5t56 -65.5t68.5 -34t79 -11q53 -3 98 -0.5t83 13.5t69 32.5t57 57t46 85.5zM438 374q3 48 10 103q0 6 -0.5 12.5t-3 17.5t-6.5 20.5t-12 20.5t-18 19t-26 13t-36 5
q-36 0 -62.5 -28.5t-39 -70.5t-18.5 -78.5t-6 -65.5q0 -60 14.5 -106t39.5 -46q13 0 40.5 25.5t60.5 68t63 90.5z" />
    <glyph glyph-name="A" unicode="A" horiz-adv-x="590" 
d="M309 702l240 -702h-82l-98 287h-190l-97 -287h-82l237 702q2 8 7.5 14t13 9.5t15.5 3.5t15.5 -3.5t13 -9.5t7.5 -14zM205 364h138l-70 203z" />
    <glyph glyph-name="A" unicode="&#xc5;" horiz-adv-x="590" 
d="M309 702l240 -702h-82l-98 287h-190l-97 -287h-82l237 702q2 8 7.5 14t13 9.5t15.5 3.5t15.5 -3.5t13 -9.5t7.5 -14zM205 364h138l-70 203z" />
    <glyph glyph-name="A" unicode="&#xc4;" horiz-adv-x="590" 
d="M309 702l240 -702h-82l-98 287h-190l-97 -287h-82l237 702q2 8 7.5 14t13 9.5t15.5 3.5t15.5 -3.5t13 -9.5t7.5 -14zM205 364h138l-70 203z" />
    <glyph glyph-name="A" unicode="&#xc3;" horiz-adv-x="590" 
d="M309 702l240 -702h-82l-98 287h-190l-97 -287h-82l237 702q2 8 7.5 14t13 9.5t15.5 3.5t15.5 -3.5t13 -9.5t7.5 -14zM205 364h138l-70 203z" />
    <glyph glyph-name="A" unicode="&#xc2;" horiz-adv-x="590" 
d="M309 702l240 -702h-82l-98 287h-190l-97 -287h-82l237 702q2 8 7.5 14t13 9.5t15.5 3.5t15.5 -3.5t13 -9.5t7.5 -14zM205 364h138l-70 203z" />
    <glyph glyph-name="A" unicode="&#xc1;" horiz-adv-x="590" 
d="M309 702l240 -702h-82l-98 287h-190l-97 -287h-82l237 702q2 8 7.5 14t13 9.5t15.5 3.5t15.5 -3.5t13 -9.5t7.5 -14zM205 364h138l-70 203z" />
    <glyph glyph-name="A" unicode="&#xc0;" horiz-adv-x="590" 
d="M309 702l240 -702h-82l-98 287h-190l-97 -287h-82l237 702q2 8 7.5 14t13 9.5t15.5 3.5t15.5 -3.5t13 -9.5t7.5 -14zM205 364h138l-70 203z" />
    <glyph glyph-name="B" unicode="B" 
d="M470 411q75 -64 75 -188q0 -107 -57 -164q-37 -36 -87.5 -47.5t-115.5 -11.5h-21h-225q-16 0 -27.5 11.5t-11.5 27.5v651q0 10 5 19t14 14t20 5l261 1q36 0 57 -0.5t52 -4.5t54 -15t41 -28q41 -40 41 -111q0 -111 -82 -154q4 -3 7 -5zM77 651v-188h193q24 3 54 2
q80 4 111.5 25t31.5 80q0 38 -17 56q-13 12 -40 18t-49 7t-60 0h-224zM433 114q34 34 34 109q0 88 -47 129q-35 31 -96 35h-5h-5v-1h-41h-196v-309h188q41 0 63 1t55 10t50 26z" />
    <glyph glyph-name="C" unicode="C" horiz-adv-x="576" 
d="M458 202h77q0 -74 -52 -128q-71 -74 -215 -74q-44 0 -80 9t-62 23t-46.5 36.5t-33.5 43t-22.5 50.5t-14 51.5t-6.5 52.5t-2.5 46t-0.5 40t0.5 40.5t3 48t7 55.5t14 55t23 54.5t34.5 47.5t48 40t64.5 25t82.5 10q54 0 98 -15t72 -38.5t48 -53t29 -56t11 -51.5l-78 -4
q-1 10 -3.5 21.5t-14.5 34.5t-29.5 40.5t-52.5 31t-80 13.5q-106 0 -153 -70t-47 -229q0 -152 42.5 -213.5t148.5 -61.5q111 0 159 50q31 32 31 75z" />
    <glyph glyph-name="C" unicode="&#xc7;" horiz-adv-x="576" 
d="M458 202h77q0 -74 -52 -128q-71 -74 -215 -74q-44 0 -80 9t-62 23t-46.5 36.5t-33.5 43t-22.5 50.5t-14 51.5t-6.5 52.5t-2.5 46t-0.5 40t0.5 40.5t3 48t7 55.5t14 55t23 54.5t34.5 47.5t48 40t64.5 25t82.5 10q54 0 98 -15t72 -38.5t48 -53t29 -56t11 -51.5l-78 -4
q-1 10 -3.5 21.5t-14.5 34.5t-29.5 40.5t-52.5 31t-80 13.5q-106 0 -153 -70t-47 -229q0 -152 42.5 -213.5t148.5 -61.5q111 0 159 50q31 32 31 75z" />
    <glyph glyph-name="D" unicode="D" 
d="M272 728q132 0 202.5 -94t70.5 -270q0 -59 -8.5 -109.5t-23 -86t-33 -64t-41.5 -46t-44.5 -30t-45.5 -18t-41.5 -8t-35.5 -2.5h-233q-16 0 -27.5 11.5t-11.5 27.5v651q0 10 5 19t14 14t20 5h233zM272 77q47 0 82.5 18t56.5 45.5t34 66.5t17.5 76.5t4.5 80.5
q0 287 -195 287h-195v-574h195z" />
    <glyph glyph-name="E" unicode="E" horiz-adv-x="537" 
d="M496 651h-419v-248h213v-77h-213v-249h419v-77h-457q-16 0 -27.5 11.5t-11.5 27.5v651q0 16 11.5 27t27.5 11h457v-77z" />
    <glyph glyph-name="E" unicode="&#xcb;" horiz-adv-x="537" 
d="M496 651h-419v-248h213v-77h-213v-249h419v-77h-457q-16 0 -27.5 11.5t-11.5 27.5v651q0 16 11.5 27t27.5 11h457v-77z" />
    <glyph glyph-name="E" unicode="&#xca;" horiz-adv-x="537" 
d="M496 651h-419v-248h213v-77h-213v-249h419v-77h-457q-16 0 -27.5 11.5t-11.5 27.5v651q0 16 11.5 27t27.5 11h457v-77z" />
    <glyph glyph-name="E" unicode="&#xc9;" horiz-adv-x="537" 
d="M496 651h-419v-248h213v-77h-213v-249h419v-77h-457q-16 0 -27.5 11.5t-11.5 27.5v651q0 16 11.5 27t27.5 11h457v-77z" />
    <glyph glyph-name="E" unicode="&#xc8;" horiz-adv-x="537" 
d="M496 651h-419v-248h213v-77h-213v-249h419v-77h-457q-16 0 -27.5 11.5t-11.5 27.5v651q0 16 11.5 27t27.5 11h457v-77z" />
    <glyph glyph-name="F" unicode="F" horiz-adv-x="547" 
d="M506 647h-429v-244h236v-77h-236v-326h-77v688q0 17 11.5 28.5t27.5 11.5h467v-81z" />
    <glyph glyph-name="G" unicode="G" horiz-adv-x="586" 
d="M545 293q7 -145 -65 -220q-69 -73 -207 -73q-19 0 -36.5 2t-39 7.5t-41 14t-39.5 23.5t-37 34t-32 46.5t-25.5 60.5t-16.5 77t-6 95q0 71 7.5 124t27.5 101t53.5 78t88.5 47.5t129 17.5q113 0 176 -69q20 -22 34 -51t19.5 -52t8 -48.5t2 -34.5t-0.5 -16l-77 7v3.5v9
t-0.5 13.5t-1.5 16.5t-3 19t-5.5 21t-7.5 21.5t-11 20.5t-15 18.5q-40 44 -118 44q-68 0 -110.5 -13.5t-70 -48t-38 -88.5t-10.5 -141q0 -283 196 -283q105 0 151 49q40 42 44 126h-195v78h233q16 0 27 -11t12 -26z" />
    <glyph glyph-name="H" unicode="H" 
d="M467 728h78v-728h-78v338h-390v-338h-77v728h77v-313h390v313z" />
    <glyph glyph-name="I" unicode="I" horiz-adv-x="118" 
d="M77 0h-77v728h77v-728z" />
    <glyph glyph-name="I" unicode="&#xcf;" horiz-adv-x="118" 
d="M77 0h-77v728h77v-728z" />
    <glyph glyph-name="I" unicode="&#xce;" horiz-adv-x="118" 
d="M77 0h-77v728h77v-728z" />
    <glyph glyph-name="I" unicode="&#xcd;" horiz-adv-x="118" 
d="M77 0h-77v728h77v-728z" />
    <glyph glyph-name="I" unicode="&#xcc;" horiz-adv-x="118" 
d="M77 0h-77v728h77v-728z" />
    <glyph glyph-name="J" unicode="J" horiz-adv-x="468" 
d="M350 728h78v-573q0 -155 -229 -155q-48 0 -90 19t-70 55q-49 61 -37 135l76 -13q-6 -38 20 -70q36 -44 101 -44q43 0 73.5 5.5t45.5 12.5t22.5 18.5t8.5 18.5t1 18v573z" />
    <glyph glyph-name="K" unicode="K" horiz-adv-x="537" 
d="M396 728h100l-389 -382l384 -346h-111l-303 269v-269h-77v728h77v-310z" />
    <glyph glyph-name="L" unicode="L" horiz-adv-x="547" 
d="M77 82h429v-82h-467q-16 0 -27.5 12t-11.5 29v687h77v-646z" />
    <glyph glyph-name="M" unicode="M" horiz-adv-x="798" 
d="M732.5 715q24.5 -10 25.5 -38v-677h-78v570l-267 -317q-12 -14 -29 -14q-17 -1 -29 13l-278 320v-572h-77v677q0 28 24.5 38t42.5 -11l316 -364l307 364q18 21 42.5 11z" />
    <glyph glyph-name="N" unicode="N" horiz-adv-x="578" 
d="M461 717h77v-689q0 -9 -3 -16.5t-9.5 -13t-14.5 -7.5q-6 -2 -11 -2q-20 0 -32 16l-391 552v-557h-77v679q0 12 7.5 22.5t19.5 14.5q27 8 43 -15l391 -552v568z" />
    <glyph glyph-name="N" unicode="&#xd1;" horiz-adv-x="578" 
d="M461 717h77v-689q0 -9 -3 -16.5t-9.5 -13t-14.5 -7.5q-6 -2 -11 -2q-20 0 -32 16l-391 552v-557h-77v679q0 12 7.5 22.5t19.5 14.5q27 8 43 -15l391 -552v568z" />
    <glyph glyph-name="O" unicode="O" horiz-adv-x="578" 
d="M455 654q28 -31 46.5 -75.5t25.5 -82t9 -79t1.5 -59t-2.5 -29.5q-3 -37 -12.5 -78t-30.5 -87t-49.5 -81.5t-74 -59t-99.5 -23.5q-126 0 -197.5 88t-71.5 245v18q0 33 0.5 53.5t4.5 60.5t12 69.5t25.5 63.5t42.5 59q70 71 193 71q110 0 177 -74zM458 337q1 3 1.5 10.5
t0.5 27.5t-1 40t-5 46.5t-10.5 50.5t-18.5 48t-28 42q-44 49 -120 49q-90 0 -138 -48q-22 -23 -36 -55.5t-19 -72.5t-6 -63.5t0 -59.5v-19q0 -33 3.5 -63.5t16 -67t32 -63t55.5 -44.5t84 -18q34 0 63 14.5t47.5 36t34 51t23 54.5t13 51t7 36.5t1.5 15.5v1z" />
    <glyph glyph-name="O" unicode="&#xd8;" horiz-adv-x="578" 
d="M455 654q28 -31 46.5 -75.5t25.5 -82t9 -79t1.5 -59t-2.5 -29.5q-3 -37 -12.5 -78t-30.5 -87t-49.5 -81.5t-74 -59t-99.5 -23.5q-126 0 -197.5 88t-71.5 245v18q0 33 0.5 53.5t4.5 60.5t12 69.5t25.5 63.5t42.5 59q70 71 193 71q110 0 177 -74zM458 337q1 3 1.5 10.5
t0.5 27.5t-1 40t-5 46.5t-10.5 50.5t-18.5 48t-28 42q-44 49 -120 49q-90 0 -138 -48q-22 -23 -36 -55.5t-19 -72.5t-6 -63.5t0 -59.5v-19q0 -33 3.5 -63.5t16 -67t32 -63t55.5 -44.5t84 -18q34 0 63 14.5t47.5 36t34 51t23 54.5t13 51t7 36.5t1.5 15.5v1z" />
    <glyph glyph-name="O" unicode="&#xd6;" horiz-adv-x="578" 
d="M455 654q28 -31 46.5 -75.5t25.5 -82t9 -79t1.5 -59t-2.5 -29.5q-3 -37 -12.5 -78t-30.5 -87t-49.5 -81.5t-74 -59t-99.5 -23.5q-126 0 -197.5 88t-71.5 245v18q0 33 0.5 53.5t4.5 60.5t12 69.5t25.5 63.5t42.5 59q70 71 193 71q110 0 177 -74zM458 337q1 3 1.5 10.5
t0.5 27.5t-1 40t-5 46.5t-10.5 50.5t-18.5 48t-28 42q-44 49 -120 49q-90 0 -138 -48q-22 -23 -36 -55.5t-19 -72.5t-6 -63.5t0 -59.5v-19q0 -33 3.5 -63.5t16 -67t32 -63t55.5 -44.5t84 -18q34 0 63 14.5t47.5 36t34 51t23 54.5t13 51t7 36.5t1.5 15.5v1z" />
    <glyph glyph-name="O" unicode="&#xd5;" horiz-adv-x="578" 
d="M455 654q28 -31 46.5 -75.5t25.5 -82t9 -79t1.5 -59t-2.5 -29.5q-3 -37 -12.5 -78t-30.5 -87t-49.5 -81.5t-74 -59t-99.5 -23.5q-126 0 -197.5 88t-71.5 245v18q0 33 0.5 53.5t4.5 60.5t12 69.5t25.5 63.5t42.5 59q70 71 193 71q110 0 177 -74zM458 337q1 3 1.5 10.5
t0.5 27.5t-1 40t-5 46.5t-10.5 50.5t-18.5 48t-28 42q-44 49 -120 49q-90 0 -138 -48q-22 -23 -36 -55.5t-19 -72.5t-6 -63.5t0 -59.5v-19q0 -33 3.5 -63.5t16 -67t32 -63t55.5 -44.5t84 -18q34 0 63 14.5t47.5 36t34 51t23 54.5t13 51t7 36.5t1.5 15.5v1z" />
    <glyph glyph-name="O" unicode="&#xd4;" horiz-adv-x="578" 
d="M455 654q28 -31 46.5 -75.5t25.5 -82t9 -79t1.5 -59t-2.5 -29.5q-3 -37 -12.5 -78t-30.5 -87t-49.5 -81.5t-74 -59t-99.5 -23.5q-126 0 -197.5 88t-71.5 245v18q0 33 0.5 53.5t4.5 60.5t12 69.5t25.5 63.5t42.5 59q70 71 193 71q110 0 177 -74zM458 337q1 3 1.5 10.5
t0.5 27.5t-1 40t-5 46.5t-10.5 50.5t-18.5 48t-28 42q-44 49 -120 49q-90 0 -138 -48q-22 -23 -36 -55.5t-19 -72.5t-6 -63.5t0 -59.5v-19q0 -33 3.5 -63.5t16 -67t32 -63t55.5 -44.5t84 -18q34 0 63 14.5t47.5 36t34 51t23 54.5t13 51t7 36.5t1.5 15.5v1z" />
    <glyph glyph-name="O" unicode="&#xd3;" horiz-adv-x="578" 
d="M455 654q28 -31 46.5 -75.5t25.5 -82t9 -79t1.5 -59t-2.5 -29.5q-3 -37 -12.5 -78t-30.5 -87t-49.5 -81.5t-74 -59t-99.5 -23.5q-126 0 -197.5 88t-71.5 245v18q0 33 0.5 53.5t4.5 60.5t12 69.5t25.5 63.5t42.5 59q70 71 193 71q110 0 177 -74zM458 337q1 3 1.5 10.5
t0.5 27.5t-1 40t-5 46.5t-10.5 50.5t-18.5 48t-28 42q-44 49 -120 49q-90 0 -138 -48q-22 -23 -36 -55.5t-19 -72.5t-6 -63.5t0 -59.5v-19q0 -33 3.5 -63.5t16 -67t32 -63t55.5 -44.5t84 -18q34 0 63 14.5t47.5 36t34 51t23 54.5t13 51t7 36.5t1.5 15.5v1z" />
    <glyph glyph-name="O" unicode="&#xd2;" horiz-adv-x="578" 
d="M455 654q28 -31 46.5 -75.5t25.5 -82t9 -79t1.5 -59t-2.5 -29.5q-3 -37 -12.5 -78t-30.5 -87t-49.5 -81.5t-74 -59t-99.5 -23.5q-126 0 -197.5 88t-71.5 245v18q0 33 0.5 53.5t4.5 60.5t12 69.5t25.5 63.5t42.5 59q70 71 193 71q110 0 177 -74zM458 337q1 3 1.5 10.5
t0.5 27.5t-1 40t-5 46.5t-10.5 50.5t-18.5 48t-28 42q-44 49 -120 49q-90 0 -138 -48q-22 -23 -36 -55.5t-19 -72.5t-6 -63.5t0 -59.5v-19q0 -33 3.5 -63.5t16 -67t32 -63t55.5 -44.5t84 -18q34 0 63 14.5t47.5 36t34 51t23 54.5t13 51t7 36.5t1.5 15.5v1z" />
    <glyph glyph-name="P" unicode="P" horiz-adv-x="588" 
d="M364 728q38 0 68 -9.5t49 -23t32.5 -36.5t20 -41t10 -44.5t4 -40t0.5 -35.5q0 -48 -29 -84t-67.5 -51t-77.5 -15h-297v-348h-77v688q0 11 5 20.5t14 14.5t20 5h325zM374 430q32 0 64.5 18t32.5 50t-1.5 51.5t-7.5 40.5t-17.5 32t-31.5 18t-49 7h-287v-217h297z" />
    <glyph glyph-name="Q" unicode="Q" horiz-adv-x="578" 
d="M455 654q28 -31 46.5 -75.5t25.5 -82t9 -78.5t1 -58.5t-2 -29.5q-9 -119 -68 -212l57 -50l-51 -58l-55 48q-64 -58 -149 -58q-126 0 -197.5 88.5t-71.5 244.5v18q0 33 0.5 54t4.5 61t12 69t25.5 63.5t42.5 59.5q70 71 193 71q110 0 177 -75zM458 337q1 7 2 20.5
t-0.5 48.5t-6.5 66.5t-19.5 68.5t-36.5 62q-44 48 -119 48q-91 0 -138 -48q-23 -23 -37 -55t-19 -72t-6 -64t0 -60v-19q0 -33 3.5 -63.5t16 -67t32 -63t55.5 -44t84 -17.5q50 0 90 32l-55 48l50 58l54 -47q19 33 31.5 76.5t15 62.5t3.5 28v1z" />
    <glyph glyph-name="R" unicode="R" horiz-adv-x="588" 
d="M548 493q0 -48 -29 -83.5t-67.5 -50.5t-77.5 -15h-206l335 -344h-97l-329 318v-318h-77v680q0 17 11.5 29t27.5 12h325q38 0 68 -9.5t49 -23t32.5 -36t20 -40.5t10 -44.5t4 -40t0.5 -34.5zM77 640v-215h297q32 0 64.5 18t32.5 50t-1.5 51t-7.5 39.5t-17.5 31.5t-31.5 18
t-49 7h-287z" />
    <glyph glyph-name="S" unicode="S" horiz-adv-x="582" 
d="M539 269q16 -94 -45 -168q-24 -30 -58.5 -52.5t-75 -35t-82.5 -13.5h-8q-57 0 -109.5 20.5t-90.5 56.5q-66 65 -66 157h77q0 -59 43 -101q28 -27 69 -42.5t83 -13.5q31 1 60.5 10.5t55 25.5t42.5 37q38 46 28 106q-6 38 -52 47t-136 -1q-33 -3 -50 -4t-47.5 -1t-49 3
t-42.5 10.5t-38 20t-26 32.5t-17 47q-8 50 6 111t56 110q84 98 235 94q109 -1 172 -70q21 -24 35.5 -54.5t20.5 -54.5t8.5 -50.5t2 -36.5t-0.5 -16l-39 3l-39 3q1 10 1 28t-11.5 59t-35.5 67q-40 44 -115 45q-116 2 -175 -67q-29 -34 -40 -78t-5 -80q7 -37 52.5 -45.5
t134.5 1.5q25 2 38.5 3t38 2t39 -0.5t36 -4t35 -8t29.5 -14t26 -20.5t18 -29.5t12 -38.5z" />
    <glyph glyph-name="T" unicode="T" horiz-adv-x="508" 
d="M0 725h467v-77h-195v-648h-77v648h-195v77z" />
    <glyph glyph-name="U" unicode="U" horiz-adv-x="576" 
d="M458 725h77v-538q0 -106 -100 -155q-67 -32 -168 -32q-36 0 -57 1t-54 7t-57 18q-99 49 -99 192v507h77v-507q0 -91 55 -118q37 -19 135 -19q84 0 136 25q55 27 55 81v538z" />
    <glyph glyph-name="U" unicode="&#xdc;" horiz-adv-x="576" 
d="M458 725h77v-538q0 -106 -100 -155q-67 -32 -168 -32q-36 0 -57 1t-54 7t-57 18q-99 49 -99 192v507h77v-507q0 -91 55 -118q37 -19 135 -19q84 0 136 25q55 27 55 81v538z" />
    <glyph glyph-name="U" unicode="&#xdb;" horiz-adv-x="576" 
d="M458 725h77v-538q0 -106 -100 -155q-67 -32 -168 -32q-36 0 -57 1t-54 7t-57 18q-99 49 -99 192v507h77v-507q0 -91 55 -118q37 -19 135 -19q84 0 136 25q55 27 55 81v538z" />
    <glyph glyph-name="U" unicode="&#xda;" horiz-adv-x="576" 
d="M458 725h77v-538q0 -106 -100 -155q-67 -32 -168 -32q-36 0 -57 1t-54 7t-57 18q-99 49 -99 192v507h77v-507q0 -91 55 -118q37 -19 135 -19q84 0 136 25q55 27 55 81v538z" />
    <glyph glyph-name="U" unicode="&#xd9;" horiz-adv-x="576" 
d="M458 725h77v-538q0 -106 -100 -155q-67 -32 -168 -32q-36 0 -57 1t-54 7t-57 18q-99 49 -99 192v507h77v-507q0 -91 55 -118q37 -19 135 -19q84 0 136 25q55 27 55 81v538z" />
    <glyph glyph-name="V" unicode="V" horiz-adv-x="586" 
d="M461 728h85l-242 -701q-4 -12 -14 -19.5t-22 -7.5q-13 0 -23 7.5t-14 19.5l-231 701h82l186 -565z" />
    <glyph glyph-name="W" unicode="W" horiz-adv-x="829" 
d="M709 728h80l-186 -698q-7 -26 -32 -30q-25 -3 -38 19l-150 247l-177 -250q-11 -16 -31 -16q-4 0 -8 1q-24 6 -29 32l-138 695h80l116 -590l158 224q12 18 32.5 17t31.5 -19l134 -221z" />
    <glyph glyph-name="X" unicode="X" horiz-adv-x="605" 
d="M329 365l235 -365h-95l-187 291l-187 -291h-95l234 365l-234 363h95l187 -289l185 289h96z" />
    <glyph glyph-name="Y" unicode="Y" 
d="M545 728l-238 -364v-364h-77v345l-230 383h87l176 -285l187 285h95z" />
    <glyph glyph-name="Y" unicode="&#x178;" 
d="M545 728l-238 -364v-364h-77v345l-230 383h87l176 -285l187 285h95z" />
    <glyph glyph-name="Y" unicode="&#xdd;" 
d="M545 728l-238 -364v-364h-77v345l-230 383h87l176 -285l187 285h95z" />
    <glyph glyph-name="Z" unicode="Z" horiz-adv-x="582" 
d="M135 77h425v-77h-499q-24 0 -34.5 21t2.5 40l418 590h-425v77h500q23 0 34 -20.5t-3 -40.5z" />
    <glyph glyph-name="bracketleft" unicode="[" horiz-adv-x="208" 
d="M185 705h-87v-672h87v-77h-87h-77v826h77h87v-77z" />
    <glyph glyph-name="backslash" unicode="\" horiz-adv-x="311" 
d="M105 652l184 -651h-81l-186 651h83z" />
    <glyph glyph-name="bracketright" unicode="]" horiz-adv-x="208" 
d="M109 782h77v-826h-77h-87v77h87v672h-87v77h87z" />
    <glyph glyph-name="underscore" unicode="_" horiz-adv-x="480" 
d="M473 0h-467v77h467v-77z" />
    <glyph glyph-name="a" unicode="a" horiz-adv-x="590" 
d="M309 702l240 -702h-82l-98 287h-190l-97 -287h-82l237 702q4 12 14 19.5t22 7.5t22 -7.5t14 -19.5zM205 364h138l-70 203z" />
    <glyph glyph-name="a" unicode="&#xe5;" horiz-adv-x="590" 
d="M309 702l240 -702h-82l-98 287h-190l-97 -287h-82l237 702q4 12 14 19.5t22 7.5t22 -7.5t14 -19.5zM205 364h138l-70 203z" />
    <glyph glyph-name="a" unicode="&#xe4;" horiz-adv-x="590" 
d="M309 702l240 -702h-82l-98 287h-190l-97 -287h-82l237 702q4 12 14 19.5t22 7.5t22 -7.5t14 -19.5zM205 364h138l-70 203z" />
    <glyph glyph-name="a" unicode="&#xe3;" horiz-adv-x="590" 
d="M309 702l240 -702h-82l-98 287h-190l-97 -287h-82l237 702q4 12 14 19.5t22 7.5t22 -7.5t14 -19.5zM205 364h138l-70 203z" />
    <glyph glyph-name="a" unicode="&#xe2;" horiz-adv-x="590" 
d="M309 702l240 -702h-82l-98 287h-190l-97 -287h-82l237 702q4 12 14 19.5t22 7.5t22 -7.5t14 -19.5zM205 364h138l-70 203z" />
    <glyph glyph-name="a" unicode="&#xe1;" horiz-adv-x="590" 
d="M309 702l240 -702h-82l-98 287h-190l-97 -287h-82l237 702q4 12 14 19.5t22 7.5t22 -7.5t14 -19.5zM205 364h138l-70 203z" />
    <glyph glyph-name="a" unicode="&#xe0;" horiz-adv-x="590" 
d="M309 702l240 -702h-82l-98 287h-190l-97 -287h-82l237 702q4 12 14 19.5t22 7.5t22 -7.5t14 -19.5zM205 364h138l-70 203z" />
    <glyph glyph-name="b" unicode="b" 
d="M470 411q75 -64 75 -188q0 -107 -57 -164q-37 -36 -87.5 -47.5t-115.5 -11.5h-21h-225q-16 0 -27.5 11.5t-11.5 27.5v651q0 16 11.5 27t27.5 11l261 1q36 0 57 -0.5t52 -4.5t54 -15t41 -28q41 -40 41 -111q0 -111 -82 -154q4 -3 7 -5zM77 651v-188h193q24 3 54 2
q40 2 65.5 7t44 16.5t26 31t7.5 50.5q0 38 -17 56q-13 12 -40 18t-49 7t-60 0h-224zM433 114q34 34 34 109q0 88 -47 129q-35 31 -96 35h-5h-5v-1h-41h-196v-309h188q41 0 63 1t55 10t50 26z" />
    <glyph glyph-name="c" unicode="c" horiz-adv-x="576" 
d="M458 202h77q0 -74 -52 -128q-71 -74 -215 -74q-56 0 -99.5 15t-71 35.5t-47.5 55.5t-29 62.5t-14.5 68.5t-6 61.5t-0.5 53.5q0 25 0.5 40.5t3 48t7 55.5t14 55t23 54.5t34.5 47.5t48 40t64.5 25t82.5 10q54 0 98 -15t72 -38.5t48 -53t29 -56t11 -51.5l-78 -4
q-1 10 -3.5 21.5t-14.5 34.5t-29.5 40.5t-52.5 31t-80 13.5q-106 0 -153 -70t-47 -229q0 -152 42.5 -213.5t148.5 -61.5q111 0 159 50q31 32 31 75z" />
    <glyph glyph-name="c" unicode="&#xe7;" horiz-adv-x="576" 
d="M458 202h77q0 -74 -52 -128q-71 -74 -215 -74q-56 0 -99.5 15t-71 35.5t-47.5 55.5t-29 62.5t-14.5 68.5t-6 61.5t-0.5 53.5q0 25 0.5 40.5t3 48t7 55.5t14 55t23 54.5t34.5 47.5t48 40t64.5 25t82.5 10q54 0 98 -15t72 -38.5t48 -53t29 -56t11 -51.5l-78 -4
q-1 10 -3.5 21.5t-14.5 34.5t-29.5 40.5t-52.5 31t-80 13.5q-106 0 -153 -70t-47 -229q0 -152 42.5 -213.5t148.5 -61.5q111 0 159 50q31 32 31 75z" />
    <glyph glyph-name="d" unicode="d" 
d="M272 728q132 0 202.5 -94t70.5 -270q0 -53 -7 -99t-18 -79.5t-27.5 -61.5t-34 -47t-38.5 -33.5t-40.5 -22.5t-40 -13t-36 -6.5t-31.5 -1.5h-233q-16 0 -27.5 11.5t-11.5 27.5v651q0 16 11.5 27t27.5 11h233zM272 77q47 0 82.5 18t56.5 45.5t34 66.5t17.5 76.5t4.5 80.5
q0 287 -195 287h-195v-574h195z" />
    <glyph glyph-name="e" unicode="e" horiz-adv-x="537" 
d="M496 651h-419v-248h213v-77h-213v-249h419v-77h-457q-16 0 -27.5 11.5t-11.5 27.5v651q0 16 11.5 27t27.5 11h457v-77z" />
    <glyph glyph-name="e" unicode="&#xeb;" horiz-adv-x="537" 
d="M496 651h-419v-248h213v-77h-213v-249h419v-77h-457q-16 0 -27.5 11.5t-11.5 27.5v651q0 16 11.5 27t27.5 11h457v-77z" />
    <glyph glyph-name="e" unicode="&#xea;" horiz-adv-x="537" 
d="M496 651h-419v-248h213v-77h-213v-249h419v-77h-457q-16 0 -27.5 11.5t-11.5 27.5v651q0 16 11.5 27t27.5 11h457v-77z" />
    <glyph glyph-name="e" unicode="&#xe9;" horiz-adv-x="537" 
d="M496 651h-419v-248h213v-77h-213v-249h419v-77h-457q-16 0 -27.5 11.5t-11.5 27.5v651q0 16 11.5 27t27.5 11h457v-77z" />
    <glyph glyph-name="e" unicode="&#xe8;" horiz-adv-x="537" 
d="M496 651h-419v-248h213v-77h-213v-249h419v-77h-457q-16 0 -27.5 11.5t-11.5 27.5v651q0 16 11.5 27t27.5 11h457v-77z" />
    <glyph glyph-name="f" unicode="f" horiz-adv-x="547" 
d="M506 647h-429v-244h236v-77h-236v-326h-77v688q0 17 11.5 28.5t27.5 11.5h467v-81z" />
    <glyph glyph-name="g" unicode="g" horiz-adv-x="586" 
d="M545 293q7 -145 -65 -220q-69 -73 -207 -73q-25 0 -48 3.5t-51 13.5t-51.5 26t-47 44t-39.5 64.5t-26 90t-10 118.5q0 71 7.5 124t27.5 101t53.5 78t88.5 47.5t129 17.5q113 0 176 -69q20 -22 34 -51t19.5 -52.5t8 -48.5t2 -34t-0.5 -16l-77 7v27t-10.5 54.5t-33.5 61.5
q-40 44 -118 44q-68 0 -110.5 -13.5t-70 -48t-38 -88.5t-10.5 -141q0 -283 196 -283q105 0 151 49q40 42 44 126h-195v78h233q10 0 19 -5t14 -13.5t6 -18.5z" />
    <glyph glyph-name="h" unicode="h" 
d="M467 728h78v-728h-78v338h-390v-338h-77v728h77v-313h390v313z" />
    <glyph glyph-name="i" unicode="i" horiz-adv-x="118" 
d="M77 0h-77v728h77v-728z" />
    <glyph glyph-name="i" unicode="&#xef;" horiz-adv-x="118" 
d="M77 0h-77v728h77v-728z" />
    <glyph glyph-name="i" unicode="&#xee;" horiz-adv-x="118" 
d="M77 0h-77v728h77v-728z" />
    <glyph glyph-name="i" unicode="&#xed;" horiz-adv-x="118" 
d="M77 0h-77v728h77v-728z" />
    <glyph glyph-name="i" unicode="&#xec;" horiz-adv-x="118" 
d="M77 0h-77v728h77v-728z" />
    <glyph glyph-name="j" unicode="j" horiz-adv-x="537" 
d="M496 728l-389 -382l384 -346h-111l-303 269v-269h-77v728h77v-310l319 310h100z" />
    <glyph glyph-name="k" unicode="k" horiz-adv-x="468" 
d="M350 728h78v-573q0 -155 -229 -155q-48 0 -90 19.5t-70 54.5q-49 61 -37 135l76 -13q-6 -38 20 -70q36 -44 101 -44q36 0 63.5 3t43 10t25.5 13.5t14 16.5t4.5 15.5t0.5 14.5v573z" />
    <glyph glyph-name="l" unicode="l" horiz-adv-x="547" 
d="M77 82h429v-82h-467q-16 0 -27.5 12t-11.5 29v687h77v-646z" />
    <glyph glyph-name="m" unicode="m" horiz-adv-x="710" 
d="M647 726q22 -10 22 -38v-688h-68v579l-236 -323q-11 -13 -26 -13q-15 -1 -26 13l-245 325v-581h-68v688q0 28 22 38t38 -11l279 -370l270 369q16 22 38 12z" />
    <glyph glyph-name="n" unicode="n" horiz-adv-x="579" 
d="M461 728h77v-689q0 -13 -7.5 -23t-19.5 -14q-6 -2 -11 -2q-20 0 -32 16l-391 552v-557h-77v679q0 12 7.5 22.5t19.5 14.5q27 8 43 -15l391 -552v568z" />
    <glyph glyph-name="n" unicode="&#xf1;" horiz-adv-x="579" 
d="M461 728h77v-689q0 -13 -7.5 -23t-19.5 -14q-6 -2 -11 -2q-20 0 -32 16l-391 552v-557h-77v679q0 12 7.5 22.5t19.5 14.5q27 8 43 -15l391 -552v568z" />
    <glyph glyph-name="o" unicode="o" horiz-adv-x="578" 
d="M455 654q28 -31 46.5 -75.5t25.5 -82t9 -79t1.5 -59t-2.5 -29.5q-2 -30 -9.5 -63.5t-21 -72t-35 -72t-49 -61.5t-67 -44t-84.5 -16q-126 0 -197.5 88t-71.5 245v18q0 33 0.5 53.5t4.5 60.5t12 69.5t25.5 63.5t42.5 59q70 71 193 71q110 0 177 -74zM458 337q1 3 1.5 10.5
t0.5 27t-1 40t-5 47t-10.5 50.5t-18.5 48t-28 42q-44 49 -120 49q-90 0 -138 -48q-22 -23 -36 -55.5t-19 -72.5t-6 -63.5t0 -59.5v-19q0 -33 3.5 -63.5t16 -67t32 -63t55.5 -44.5t84 -18q34 0 63 14.5t47.5 36t34 51t23 54t13 51t7 37t1.5 15.5v1z" />
    <glyph glyph-name="o" unicode="&#xf8;" horiz-adv-x="578" 
d="M455 654q28 -31 46.5 -75.5t25.5 -82t9 -79t1.5 -59t-2.5 -29.5q-2 -30 -9.5 -63.5t-21 -72t-35 -72t-49 -61.5t-67 -44t-84.5 -16q-126 0 -197.5 88t-71.5 245v18q0 33 0.5 53.5t4.5 60.5t12 69.5t25.5 63.5t42.5 59q70 71 193 71q110 0 177 -74zM458 337q1 3 1.5 10.5
t0.5 27t-1 40t-5 47t-10.5 50.5t-18.5 48t-28 42q-44 49 -120 49q-90 0 -138 -48q-22 -23 -36 -55.5t-19 -72.5t-6 -63.5t0 -59.5v-19q0 -33 3.5 -63.5t16 -67t32 -63t55.5 -44.5t84 -18q34 0 63 14.5t47.5 36t34 51t23 54t13 51t7 37t1.5 15.5v1z" />
    <glyph glyph-name="o" unicode="&#xf6;" horiz-adv-x="578" 
d="M455 654q28 -31 46.5 -75.5t25.5 -82t9 -79t1.5 -59t-2.5 -29.5q-2 -30 -9.5 -63.5t-21 -72t-35 -72t-49 -61.5t-67 -44t-84.5 -16q-126 0 -197.5 88t-71.5 245v18q0 33 0.5 53.5t4.5 60.5t12 69.5t25.5 63.5t42.5 59q70 71 193 71q110 0 177 -74zM458 337q1 3 1.5 10.5
t0.5 27t-1 40t-5 47t-10.5 50.5t-18.5 48t-28 42q-44 49 -120 49q-90 0 -138 -48q-22 -23 -36 -55.5t-19 -72.5t-6 -63.5t0 -59.5v-19q0 -33 3.5 -63.5t16 -67t32 -63t55.5 -44.5t84 -18q34 0 63 14.5t47.5 36t34 51t23 54t13 51t7 37t1.5 15.5v1z" />
    <glyph glyph-name="o" unicode="&#xf5;" horiz-adv-x="578" 
d="M455 654q28 -31 46.5 -75.5t25.5 -82t9 -79t1.5 -59t-2.5 -29.5q-2 -30 -9.5 -63.5t-21 -72t-35 -72t-49 -61.5t-67 -44t-84.5 -16q-126 0 -197.5 88t-71.5 245v18q0 33 0.5 53.5t4.5 60.5t12 69.5t25.5 63.5t42.5 59q70 71 193 71q110 0 177 -74zM458 337q1 3 1.5 10.5
t0.5 27t-1 40t-5 47t-10.5 50.5t-18.5 48t-28 42q-44 49 -120 49q-90 0 -138 -48q-22 -23 -36 -55.5t-19 -72.5t-6 -63.5t0 -59.5v-19q0 -33 3.5 -63.5t16 -67t32 -63t55.5 -44.5t84 -18q34 0 63 14.5t47.5 36t34 51t23 54t13 51t7 37t1.5 15.5v1z" />
    <glyph glyph-name="o" unicode="&#xf4;" horiz-adv-x="578" 
d="M455 654q28 -31 46.5 -75.5t25.5 -82t9 -79t1.5 -59t-2.5 -29.5q-2 -30 -9.5 -63.5t-21 -72t-35 -72t-49 -61.5t-67 -44t-84.5 -16q-126 0 -197.5 88t-71.5 245v18q0 33 0.5 53.5t4.5 60.5t12 69.5t25.5 63.5t42.5 59q70 71 193 71q110 0 177 -74zM458 337q1 3 1.5 10.5
t0.5 27t-1 40t-5 47t-10.5 50.5t-18.5 48t-28 42q-44 49 -120 49q-90 0 -138 -48q-22 -23 -36 -55.5t-19 -72.5t-6 -63.5t0 -59.5v-19q0 -33 3.5 -63.5t16 -67t32 -63t55.5 -44.5t84 -18q34 0 63 14.5t47.5 36t34 51t23 54t13 51t7 37t1.5 15.5v1z" />
    <glyph glyph-name="o" unicode="&#xf3;" horiz-adv-x="578" 
d="M455 654q28 -31 46.5 -75.5t25.5 -82t9 -79t1.5 -59t-2.5 -29.5q-2 -30 -9.5 -63.5t-21 -72t-35 -72t-49 -61.5t-67 -44t-84.5 -16q-126 0 -197.5 88t-71.5 245v18q0 33 0.5 53.5t4.5 60.5t12 69.5t25.5 63.5t42.5 59q70 71 193 71q110 0 177 -74zM458 337q1 3 1.5 10.5
t0.5 27t-1 40t-5 47t-10.5 50.5t-18.5 48t-28 42q-44 49 -120 49q-90 0 -138 -48q-22 -23 -36 -55.5t-19 -72.5t-6 -63.5t0 -59.5v-19q0 -33 3.5 -63.5t16 -67t32 -63t55.5 -44.5t84 -18q34 0 63 14.5t47.5 36t34 51t23 54t13 51t7 37t1.5 15.5v1z" />
    <glyph glyph-name="o" unicode="&#xf2;" horiz-adv-x="578" 
d="M455 654q28 -31 46.5 -75.5t25.5 -82t9 -79t1.5 -59t-2.5 -29.5q-2 -30 -9.5 -63.5t-21 -72t-35 -72t-49 -61.5t-67 -44t-84.5 -16q-126 0 -197.5 88t-71.5 245v18q0 33 0.5 53.5t4.5 60.5t12 69.5t25.5 63.5t42.5 59q70 71 193 71q110 0 177 -74zM458 337q1 3 1.5 10.5
t0.5 27t-1 40t-5 47t-10.5 50.5t-18.5 48t-28 42q-44 49 -120 49q-90 0 -138 -48q-22 -23 -36 -55.5t-19 -72.5t-6 -63.5t0 -59.5v-19q0 -33 3.5 -63.5t16 -67t32 -63t55.5 -44.5t84 -18q34 0 63 14.5t47.5 36t34 51t23 54t13 51t7 37t1.5 15.5v1z" />
    <glyph glyph-name="p" unicode="p" horiz-adv-x="589" 
d="M364 728q38 0 68 -9.5t49 -23t32.5 -36.5t20 -41t10 -44.5t4 -40t0.5 -35.5q0 -48 -29 -84t-67.5 -51t-77.5 -15h-297v-348h-77v688q0 17 11.5 28.5t27.5 11.5h325zM374 430q32 0 64.5 18t32.5 50q0 27 -1 44t-4.5 35.5t-10.5 30t-19 21t-29.5 14t-42.5 4.5h-287v-217
h297z" />
    <glyph glyph-name="q" unicode="q" horiz-adv-x="578" 
d="M455 658q28 -31 46.5 -75.5t25.5 -82t9 -78.5t1 -58.5t-2 -29.5q-9 -119 -68 -212l57 -50l-51 -58l-55 48q-64 -58 -149 -58q-126 0 -197.5 88.5t-71.5 244.5v18q0 33 0.5 54t4.5 61t12 69t25.5 63.5t42.5 59.5q70 71 193 71q110 0 177 -75zM458 341q1 7 2 20.5
t-0.5 48.5t-6.5 66.5t-19.5 68.5t-36.5 62q-44 48 -119 48q-91 0 -138 -48q-23 -23 -37 -55t-19 -72t-6 -64t0 -60v-19q0 -33 3.5 -63.5t16 -67t32 -63t55.5 -44t84 -17.5q50 0 90 32l-55 48l50 58l54 -46q19 32 31.5 75.5t15 62.5t3.5 28v1z" />
    <glyph glyph-name="r" unicode="r" horiz-adv-x="589" 
d="M548 497q0 -48 -29 -83t-67.5 -50t-77.5 -15h-206l335 -345h-97l-329 319v-319h-77v681q0 16 11.5 28t27.5 12h325q38 0 68 -9.5t49 -23t32.5 -36t20 -40.5t10 -44.5t4 -39.5t0.5 -35zM77 430h297q32 0 64.5 17.5t32.5 49.5t-1.5 51.5t-7.5 40t-17.5 31t-31.5 17.5t-49 7
h-287v-214z" />
    <glyph glyph-name="s" unicode="s" horiz-adv-x="579" 
d="M535 269q16 -94 -44 -168q-37 -45 -95 -72t-121 -29h-9q-56 0 -109 20.5t-90 56.5q-67 65 -67 157h77q0 -59 43 -101q28 -27 69 -42.5t83 -13.5q47 2 90 21.5t69 51.5q38 46 28 106q-7 38 -53 47t-136 -1q-34 -2 -68 -2.5t-67 7t-59.5 21t-45.5 40t-25 63.5
q-19 111 57 200q84 98 235 94q110 -1 172 -71q21 -23 35.5 -53.5t20.5 -54.5t8.5 -50.5t2 -36.5t-0.5 -16l-39 3l-38 3q1 10 0.5 28.5t-12 59t-34.5 66.5q-40 44 -116 45q-115 2 -175 -67q-58 -68 -46 -137q13 -79 189 -65q32 3 49 4t48 1t49.5 -3.5t42.5 -11t38.5 -20
t26.5 -33t17 -47.5z" />
    <glyph glyph-name="t" unicode="t" horiz-adv-x="508" 
d="M0 725h467v-77h-195v-648h-77v648h-195v77z" />
    <glyph glyph-name="u" unicode="u" horiz-adv-x="576" 
d="M458 725h77v-538q0 -106 -100 -155q-67 -32 -168 -32q-36 0 -57 1t-54 7t-57 18q-99 49 -99 192v507h77v-507q0 -91 55 -118q37 -19 135 -19q84 0 136 25q55 27 55 81v538z" />
    <glyph glyph-name="u" unicode="&#xfc;" horiz-adv-x="576" 
d="M458 725h77v-538q0 -106 -100 -155q-67 -32 -168 -32q-36 0 -57 1t-54 7t-57 18q-99 49 -99 192v507h77v-507q0 -91 55 -118q37 -19 135 -19q84 0 136 25q55 27 55 81v538z" />
    <glyph glyph-name="u" unicode="&#xfb;" horiz-adv-x="576" 
d="M458 725h77v-538q0 -106 -100 -155q-67 -32 -168 -32q-36 0 -57 1t-54 7t-57 18q-99 49 -99 192v507h77v-507q0 -91 55 -118q37 -19 135 -19q84 0 136 25q55 27 55 81v538z" />
    <glyph glyph-name="u" unicode="&#xfa;" horiz-adv-x="576" 
d="M458 725h77v-538q0 -106 -100 -155q-67 -32 -168 -32q-36 0 -57 1t-54 7t-57 18q-99 49 -99 192v507h77v-507q0 -91 55 -118q37 -19 135 -19q84 0 136 25q55 27 55 81v538z" />
    <glyph glyph-name="u" unicode="&#xf9;" horiz-adv-x="576" 
d="M458 725h77v-538q0 -106 -100 -155q-67 -32 -168 -32q-36 0 -57 1t-54 7t-57 18q-99 49 -99 192v507h77v-507q0 -91 55 -118q37 -19 135 -19q84 0 136 25q55 27 55 81v538z" />
    <glyph glyph-name="v" unicode="v" horiz-adv-x="586" 
d="M461 728h85l-242 -701q-4 -12 -14 -19.5t-22 -7.5q-13 0 -23 7.5t-14 19.5l-231 701h82l186 -565z" />
    <glyph glyph-name="w" unicode="w" horiz-adv-x="829" 
d="M709 728h80l-186 -698q-7 -26 -32 -30q-25 -3 -38 19l-150 247l-177 -250q-11 -16 -31 -16q-4 0 -8 1q-24 6 -29 32l-138 695h80l116 -590l158 224q12 18 32.5 17t31.5 -19l134 -221z" />
    <glyph glyph-name="x" unicode="x" horiz-adv-x="605" 
d="M329 365l235 -365h-95l-187 291l-187 -291h-95l234 365l-234 363h95l187 -289l185 289h96z" />
    <glyph glyph-name="y" unicode="y" 
d="M545 728l-238 -364v-364h-77v345l-230 383h87l176 -285l187 285h95z" />
    <glyph glyph-name="y" unicode="&#xff;" 
d="M545 728l-238 -364v-364h-77v345l-230 383h87l176 -285l187 285h95z" />
    <glyph glyph-name="y" unicode="&#xfd;" 
d="M545 728l-238 -364v-364h-77v345l-230 383h87l176 -285l187 285h95z" />
    <glyph glyph-name="z" unicode="z" horiz-adv-x="579" 
d="M113 77h425v-77h-499q-24 0 -34.5 21t2.5 40l418 590h-425v77h500q23 0 34 -20.5t-3 -40.5z" />
    <glyph glyph-name="braceleft" unicode="{" horiz-adv-x="308" 
d="M235 30q10 -9 21 -14t17.5 -5.5l6.5 -0.5l6 -77h-5q-54 0 -98 40q-71 64 -74 211q-3 124 -24 146h-17t-24 1t-22 1v78q8 0 22 1q26 1 40 0q22 22 25 147q3 146 74 210q21 19 46.5 29t37.5 11t19 0l-5 -77h-1q-25 -1 -46 -21q-45 -43 -48 -154q-3 -137 -35 -185
q32 -49 35 -186q3 -113 49 -155z" />
    <glyph glyph-name="braceright" unicode="}" horiz-adv-x="316" 
d="M266 417q18 1 28 1v-86q-10 0 -28 2q-29 2 -34 -3q-22 -20 -25 -147q-3 -147 -74 -211q-44 -40 -98 -40h-5l5 78q2 -1 7.5 0t17.5 6t22 15q45 42 48 154q3 142 38 189q-35 47 -38 190q-3 111 -48 154q-3 3 -7 6t-7.5 5t-7 3.5t-7 2.5t-6 2t-5 1t-4 0.5t-2.5 0.5h-1l-5 77
q7 1 19 0t37.5 -11t46.5 -29q71 -64 74 -210q3 -127 25 -148q5 -4 34 -2z" />
    <glyph glyph-name="asciitilde" unicode="~" horiz-adv-x="532" 
d="M481 387l46 -63q-11 -7 -27.5 -17t-62.5 -26t-89 -16q-48 0 -91 18q-31 13 -65.5 17.5t-60 3t-49.5 -6.5t-33.5 -8.5t-13.5 -5.5l-30 72q7 3 18 6.5t42.5 10.5t63 9t75 -4t83.5 -22q26 -11 56 -11.5t52 5t44.5 15.5t30 15t11.5 8z" />
    <glyph glyph-name="nonbreakingspace" unicode="&#xa0;" horiz-adv-x="239" 
 />
    <glyph glyph-name="cent" unicode="&#xa2;" horiz-adv-x="459" 
d="M237 102q38 1 67 11.5t42 23t21 29t8.5 23t1.5 11.5h77q0 -19 -6 -40t-21 -45t-38.5 -43t-62 -32.5t-87.5 -15.5h-12t-28 2l-53 -167l-37 11l52 162q-51 13 -82 43q-20 19 -32.5 44t-17.5 53.5t-6 45t-1 41.5q0 43 14.5 84t42.5 75t74.5 54.5t105.5 20.5q24 0 47 -4
l54 169l37 -12l-53 -167q36 -14 61 -40q18 -18 29 -39.5t14.5 -40.5t4.5 -29t1 -16l-39 1l-38 1q0 42 -28 70q-10 10 -29 18l-97 -302h6.5h7.5zM184 106l98 308q-13 2 -23 2q-44 0 -76 -15.5t-47.5 -35t-24.5 -45t-10.5 -38.5t-1.5 -23q0 -28 1 -45t9 -43t24 -41
q18 -17 51 -24z" />
    <glyph glyph-name="sterling" unicode="&#xa3;" horiz-adv-x="553" 
d="M287 113q30 -10 47 -14.5t44 -8.5t49 2t42 21l48 -60q-25 -20 -54.5 -30t-53 -12t-55 4t-48 11t-44.5 14q-44 15 -54 15q-21 0 -52 -17q-30 -26 -48 -38l-35 50l-14 15q23 20 53 37q61 55 104 113q8 11 8 42h-202v77h194q-5 25 -13 66q-11 52 -15.5 79.5t-7.5 67t4 66.5
t24 47q30 38 87 38q49 0 89.5 -15.5t66 -38.5t43.5 -53t26 -56.5t11 -51.5l-39 -3l-38 -4q-1 10 -3.5 21.5t-13 35.5t-26 41.5t-46 31.5t-70.5 14q-20 0 -28 -8q-8 -10 -10 -31t2.5 -53.5t8 -53.5t11.5 -59q10 -50 15 -81h158v-77h-151q0 -57 -23 -88q-14 -19 -34 -42
q14 -4 43 -14z" />
    <glyph glyph-name="yen" unicode="&#xa5;" horiz-adv-x="589" 
d="M329 326v-9h169v-77h-169v-65h169v-78h-169v-97h-77v97h-185v78h185v65h-184v77h178l-224 334h87l176 -255l187 255h95z" />
    <glyph glyph-name="copyright" unicode="&#xa9;" horiz-adv-x="763" 
d="M379 163q39 2 67.5 12.5t42 23t21 28.5t8.5 23t1 12h78q0 -16 -4.5 -33.5t-13.5 -37t-26 -37.5t-39.5 -33t-56.5 -24.5t-75 -10.5h-12q-96 0 -148 51q-20 19 -33 43.5t-17.5 53t-5.5 45.5t-1 41q0 44 14.5 85t42.5 75t74.5 54.5t105.5 20.5q94 0 146 -54q22 -23 34 -54.5
t13.5 -46t1.5 -25.5l-39 2l-39 1q0 42 -27 69q-30 30 -90 30q-44 0 -76 -15t-47.5 -34.5t-24.5 -45.5t-10.5 -38.5t-1.5 -23.5q0 -27 1 -44t9 -43t24 -41q32 -31 103 -29zM381 691q103 0 189.5 -50.5t137.5 -137.5t51 -189.5t-51 -189.5t-137.5 -137.5t-189 -50.5
t-189.5 50.5t-137.5 137.5t-50.5 190q0 76 30 146t80.5 120.5t120.5 80.5t146 30zM381 14q82 0 151 40t109 109t40 151q0 124 -88 212t-212 88t-212 -88t-88 -212t88 -212t212 -88z" />
    <glyph glyph-name="softhyphen" unicode="&#xad;" horiz-adv-x="0" 
 />
    <glyph glyph-name="registered" unicode="&#xae;" horiz-adv-x="763" 
d="M434 581q26 0 45 -9.5t28 -21.5t14 -32t6 -30.5t1 -26.5q0 -19 -9 -34.5t-22.5 -25t-28.5 -14t-29 -4.5h-105l171 -182h-50l-167 168v-168h-40v359q0 8 6 14.5t14 6.5h166zM439 425q16 0 32.5 9.5t16.5 26.5q0 42 -9.5 59.5t-44.5 17.5h-147v-113h152zM381.5 755
q102.5 0 189 -51t137.5 -137.5t51 -189t-51 -189.5t-137.5 -137.5t-189 -50.5t-189.5 50.5t-137.5 137.5t-50.5 189.5t50.5 189t137.5 137.5t189.5 51zM381 77q124 0 212 88t88 212t-88 212t-212 88t-212 -88t-88 -212t88 -212t212 -88z" />
    <glyph glyph-name="multiply" unicode="&#xd7;" horiz-adv-x="401" 
d="M398 466l-147 -151l146 -142l-54 -56l-146 142l-138 -141l-55 54l137 141l-136 132l54 56l136 -132l147 151z" />
    <glyph glyph-name="divide" unicode="&#xf7;" horiz-adv-x="479" 
d="M270 410h-78v93h78v-93zM271 145h-77v93h77v-93zM457 280h-435v78h435v-78z" />
    <glyph glyph-name="quoteleft" unicode="&#x2018;" horiz-adv-x="97" 
d="M57 658l30 -16v-94h-77v195h35z" />
    <glyph glyph-name="quotedblleft" unicode="&#x201c;" horiz-adv-x="263" 
d="M45 743l12 -84l30 -17v-93h-77v194h35zM223 659l30 -17v-93h-77v194h35z" />
    <glyph glyph-name="quotedblright" unicode="&#x201d;" horiz-adv-x="260" 
d="M172 743h78v-195h-36l-11 85l-31 16v94zM7 649v94h77v-195h-35l-11 85z" />
    <glyph glyph-name="Euro" unicode="&#x20ac;" horiz-adv-x="533" 
d="M486 103l24 -74q-65 -21 -143 -21q-110 0 -184 53q-61 42 -91 118h-91v77h70q-7 39 -8 77q0 18 1 39h-62v78h72q23 98 94 151q37 28 86 41.5t88 14.5t82 -5t59 -10t27 -7l-23 -74h-1q-9 3 -22 6t-48 8t-66.5 4.5t-70 -10t-65.5 -30.5q-41 -31 -60 -89h278v-78h-291
q-1 -19 -1 -37q1 -42 9 -79h282v-77h-253q19 -34 49 -55q28 -20 65.5 -29.5t68.5 -9.5t62.5 4.5t44.5 8t18 5.5z" />
    <glyph glyph-name="trademark" unicode="&#x2122;" horiz-adv-x="657" 
d="M630 651q11 -5 11 -19v-338h-34v285l-116 -159q-5 -7 -13 -7q-7 0 -12 7l-121 160v-286h-34v338q0 14 11 19t19 -5l137 -183l133 182q8 11 19 6zM22 614v38h203v-38h-85v-324h-33v324h-85z" />
    </font>
</defs>
</svg>
